# Blender 4.2.3 LTS
# www.blender.org
o Cube.001
v 3.000000 -0.500000 3.000000
v 3.000000 0.500000 3.000000
v 0.000000 -0.500000 6.000000
v 0.000000 0.500000 6.000000
v -3.000000 -0.500000 3.000000
v -3.000000 0.500000 3.000000
v 1.000000 -0.500000 -3.000000
v 1.000000 0.500000 -3.000000
v 1.000000 -0.500000 3.000000
v 1.000000 0.500000 3.000000
v -1.000000 -0.500000 -3.000000
v -1.000000 0.500000 -3.000000
v -1.000000 -0.500000 3.000000
v -1.000000 0.500000 3.000000
vn 0.7071 -0.0000 0.7071
vn -0.7071 -0.0000 0.7071
vn -0.0000 -0.0000 -1.0000
vn -0.0000 -1.0000 -0.0000
vn -0.0000 1.0000 -0.0000
vn 1.0000 -0.0000 -0.0000
vn -0.0000 -0.0000 1.0000
vn -1.0000 -0.0000 -0.0000
vt 0.545455 0.296761
vt 0.818182 0.000000
vt 0.818182 0.296761
vt 0.545455 0.593523
vt 0.818182 0.296761
vt 0.818182 0.593523
vt 0.000000 0.803590
vt 0.272727 0.530863
vt 0.272727 0.803590
vt 0.516662 0.835781
vt 0.272727 0.652830
vt 0.516662 0.530863
vt 0.789389 0.898441
vt 0.545455 0.715490
vt 0.789389 0.593523
vt -0.000000 0.530863
vt 0.272727 0.000000
vt 0.272727 0.530863
vt 0.818182 0.545455
vt 0.909091 0.818182
vt 0.818182 0.818182
vt 0.272727 0.530863
vt 0.545455 0.000000
vt 0.545455 0.530863
vt 0.909091 0.545455
vt 1.000000 0.818182
vt 0.909091 0.818182
vt 1.000000 0.000000
vt 1.000000 0.545455
vt 0.909091 0.000000
vt 0.909091 0.545455
vt 0.545455 0.000000
vt 0.545455 0.296761
vt 0.000000 0.530863
vt 0.000000 -0.000000
vt 0.272727 0.000000
vt 0.909091 0.000000
vt 0.818182 0.000000
s 0
f 2/1/1 3/2/1 1/3/1
f 4/4/2 5/5/2 3/6/2
f 6/7/3 1/8/3 5/9/3
f 3/10/4 5/11/4 1/12/4
f 4/13/5 2/14/5 6/15/5
f 8/16/6 9/17/6 7/18/6
f 10/19/7 13/20/7 9/21/7
f 14/22/8 11/23/8 13/24/8
f 12/25/3 7/26/3 11/27/3
f 13/25/4 7/28/4 9/29/4
f 10/19/5 12/30/5 14/31/5
f 2/1/1 4/32/1 3/2/1
f 4/4/2 6/33/2 5/5/2
f 6/7/3 2/34/3 1/8/3
f 8/16/6 10/35/6 9/17/6
f 10/19/7 14/31/7 13/20/7
f 14/22/8 12/36/8 11/23/8
f 12/25/3 8/29/3 7/26/3
f 13/25/4 11/37/4 7/28/4
f 10/19/5 8/38/5 12/30/5
